<?xml version="1.0" standalone="no"?>
<!DOCTYPE svg PUBLIC "-//W3C//DTD SVG 20010904//EN"
 "http://www.w3.org/TR/2001/REC-SVG-20010904/DTD/svg10.dtd">
<svg version="1.0" xmlns="http://www.w3.org/2000/svg"
 width="1120.000000pt" height="1120.000000pt" viewBox="0 0 1120.000000 1120.000000"
 preserveAspectRatio="xMidYMid meet">

<g transform="translate(0.000000,1120.000000) scale(0.100000,-0.100000)"
fill="#000000" stroke="none">
<path d="M0 5600 l0 -5600 5600 0 5600 0 0 5600 0 5600 -5600 0 -5600 0 0
-5600z m5685 4145 c124 -225 147 -280 153 -354 6 -85 -10 -155 -54 -244 -19
-38 -34 -71 -34 -73 0 -3 14 -11 32 -18 31 -14 34 -13 78 26 112 99 279 143
446 118 157 -24 201 -42 674 -287 313 -163 492 -212 616 -169 79 27 109 68 59
80 -35 9 -46 35 -34 80 19 70 102 95 184 56 44 -21 73 -54 94 -108 17 -41 10
-136 -14 -183 -21 -40 -85 -109 -101 -109 -7 0 -15 -7 -18 -16 -3 -8 -36 -29
-73 -46 -124 -57 -308 -50 -518 19 -74 24 -142 52 -365 148 -225 97 -335 125
-493 125 -187 0 -360 -66 -478 -181 -32 -33 -68 -59 -79 -59 -11 0 -20 -6 -20
-12 -1 -7 -5 -44 -10 -83 -6 -45 -6 -127 0 -230 11 -180 32 -575 55 -1045 19
-385 62 -1180 75 -1385 26 -410 30 -489 30 -595 0 -177 -7 -216 -46 -257 -26
-27 -32 -41 -28 -61 3 -15 -11 -89 -30 -166 -45 -172 -45 -186 -8 -186 42 0
127 -46 156 -85 35 -45 52 -113 40 -156 -5 -19 -14 -34 -19 -35 -27 -2 -105
-29 -105 -36 0 -15 38 -29 46 -16 4 7 3 8 -4 4 -7 -4 -12 -2 -12 3 0 14 17 14
25 0 10 -15 -22 -36 -85 -56 -81 -25 -335 -25 -407 0 -29 10 -53 25 -53 32 0
7 -3 15 -7 18 -5 2 -3 3 2 1 14 -3 48 23 38 28 -24 14 -43 17 -37 7 4 -7 -1
-7 -15 1 -17 9 -26 9 -37 -1 -19 -15 -29 -3 -44 54 -22 79 24 167 112 211 58
29 94 32 122 11 13 -10 41 -15 85 -14 55 2 60 3 27 8 l-40 6 -2 53 c-2 28 1
52 6 52 6 0 10 6 10 14 0 8 3 16 8 19 4 2 1 2 -5 1 -18 -5 -16 14 2 32 9 9 15
11 15 4 0 -6 4 -9 9 -6 12 8 38 -24 46 -56 4 -16 11 -25 16 -22 9 5 14 -11 9
-31 -1 -5 -3 -21 -5 -34 -1 -13 -9 -27 -16 -32 -18 -11 37 -11 65 0 18 7 18 8
3 14 -24 9 -22 29 18 190 19 78 35 147 35 153 0 8 -40 12 -137 12 -76 1 -147
2 -158 4 -18 3 -20 -3 -19 -42 0 -25 15 -93 32 -151 37 -122 41 -172 15 -167
-12 2 -21 21 -30 65 -7 35 -26 111 -44 170 -25 86 -29 111 -19 126 9 15 5 25
-24 57 -19 21 -38 56 -43 77 -13 61 -6 333 16 658 11 165 25 386 31 490 6 105
15 262 20 350 5 88 17 304 25 480 24 498 55 1087 66 1230 12 161 12 143 2 245
-7 79 -9 85 -30 82 -15 -2 -30 8 -49 33 -30 40 -109 97 -192 139 -159 81 -395
88 -607 19 -27 -8 -142 -55 -255 -103 -334 -142 -469 -180 -639 -180 -68 0
-101 5 -159 27 -68 24 -90 39 -175 121 -52 49 -81 173 -58 245 24 73 94 127
164 127 42 0 99 -37 111 -71 13 -39 0 -78 -29 -85 -32 -8 -32 -27 1 -53 43
-34 91 -44 183 -38 122 8 223 44 461 165 113 58 268 137 345 176 159 81 245
111 360 127 168 23 343 -26 456 -128 36 -32 37 -33 68 -17 17 8 31 17 31 19 0
2 -15 30 -34 62 -23 38 -41 87 -53 145 -27 135 -16 170 146 471 29 54 57 97
62 95 6 -2 34 -48 64 -103z m1941 -1318 c11 4 14 -15 14 -100 0 -83 3 -108 15
-114 8 -5 77 -146 154 -313 140 -308 345 -754 419 -910 22 -47 97 -206 167
-355 159 -336 202 -429 250 -530 83 -177 119 -254 165 -350 26 -55 71 -152
100 -215 29 -63 57 -121 63 -127 5 -7 31 -13 58 -13 27 0 49 -4 49 -9 0 -10
-173 -27 -416 -41 -94 -5 -181 -16 -207 -25 -25 -8 -67 -20 -94 -25 -26 -6
-109 -24 -183 -41 -74 -17 -143 -31 -152 -32 -10 -1 -18 -5 -18 -10 0 -5 -7
-7 -15 -4 -8 4 -17 2 -20 -3 -4 -6 -15 -10 -26 -10 -11 0 -27 -7 -36 -15 -8
-8 -19 -13 -24 -10 -5 4 -9 -2 -9 -12 0 -14 -2 -15 -9 -4 -6 9 -11 10 -15 2
-4 -6 -20 -11 -37 -11 -16 0 -29 -4 -29 -8 0 -10 -71 -42 -92 -42 -9 0 -18 -7
-22 -15 -3 -9 0 -15 9 -15 8 0 15 -5 15 -11 0 -5 4 -8 9 -5 4 3 16 -3 26 -14
9 -10 24 -19 33 -19 49 -3 62 -6 62 -18 0 -7 3 -13 8 -12 17 3 51 -14 46 -22
-3 -5 2 -9 11 -9 9 0 25 -9 37 -20 16 -14 18 -20 7 -20 -9 0 -10 -3 -4 -8 18
-12 55 -69 55 -85 0 -8 7 -20 15 -27 11 -9 12 -17 4 -32 -10 -18 -8 -19 13
-13 12 4 20 4 15 0 -4 -5 -15 -9 -25 -10 -9 -1 -24 -5 -32 -8 -29 -12 -210
-27 -319 -27 -377 0 -708 93 -976 273 -71 48 -190 161 -244 232 -39 50 -101
158 -101 175 0 5 12 10 27 12 31 4 26 -9 301 658 44 107 122 294 172 415 239
573 571 1375 677 1638 20 49 42 91 49 94 10 4 14 27 14 88 0 99 9 150 23 136
5 -5 16 -7 23 -4z m-3966 -14 c3 -3 7 -46 9 -96 2 -67 8 -97 21 -116 10 -14
88 -197 174 -406 85 -209 193 -472 239 -585 245 -593 389 -940 407 -980 11
-25 51 -124 91 -220 159 -390 242 -586 251 -597 6 -7 21 -13 34 -13 13 0 24
-2 24 -5 0 -20 -69 -135 -118 -196 -244 -307 -690 -489 -1199 -489 -107 0
-243 11 -316 26 -20 4 -25 9 -18 17 5 7 7 34 5 60 -2 29 0 46 6 42 10 -6 14
13 11 48 -1 9 4 17 13 17 9 0 13 6 10 14 -5 12 21 29 48 31 3 0 18 10 31 22
14 12 27 19 30 17 6 -7 77 28 77 38 0 4 -4 8 -10 8 -5 0 -10 4 -10 9 0 5 8 7
19 4 26 -7 37 15 17 35 -11 11 -16 12 -16 4 0 -8 -8 -6 -21 6 -11 11 -29 18
-39 15 -10 -3 -21 0 -24 6 -4 6 -22 12 -39 12 -18 1 -24 3 -14 6 15 4 11 9
-17 24 -20 10 -42 19 -49 19 -7 0 -30 9 -52 20 -22 11 -50 20 -62 20 -13 0
-23 4 -23 8 0 5 -6 9 -12 9 -21 1 -218 42 -273 58 -129 36 -127 36 -445 55
-187 12 -240 19 -240 31 0 5 20 9 44 9 24 0 48 6 54 13 6 7 62 125 125 262 63
138 156 338 207 445 50 107 107 227 125 265 18 39 109 232 203 430 307 652
470 1002 579 1245 36 80 69 147 73 150 5 3 11 52 14 110 3 58 5 106 5 108 1 4
44 -9 51 -15z m1372 -4235 c25 -20 26 -40 6 -78 -13 -26 -18 -56 -18 -122 0
-101 2 -103 90 -68 28 11 62 20 76 20 20 0 28 9 43 43 27 62 121 138 121 97 0
-5 15 -17 33 -27 26 -14 64 -18 215 -21 101 -2 199 -1 217 2 40 8 66 31 59 51
-16 41 68 -12 98 -62 13 -21 28 -47 34 -58 6 -11 20 -21 30 -23 10 -2 70 -19
133 -39 100 -32 120 -42 159 -81 32 -31 47 -41 55 -33 16 16 63 13 77 -4 8 -9
10 -29 7 -52 l-6 -36 186 6 187 7 27 30 c31 34 54 37 87 14 26 -18 29 -60 5
-86 -20 -22 -66 -24 -83 -3 -10 12 -39 15 -139 15 -69 0 -132 -4 -139 -9 -9
-5 13 -17 65 -36 99 -36 171 -71 203 -99 14 -13 47 -35 73 -50 38 -22 51 -25
63 -16 11 10 199 11 801 8 772 -5 788 -5 810 14 34 32 83 5 67 -37 -7 -17 -59
-21 -69 -5 -7 11 -1198 14 -1456 3 l-155 -6 25 -48 c14 -26 34 -50 43 -53 24
-6 24 -48 1 -45 -11 2 -42 -21 -78 -57 -33 -32 -87 -74 -120 -91 -134 -70
-354 -137 -582 -177 -79 -14 -151 -30 -162 -35 -10 -6 -21 -7 -25 -4 -3 3 -6
0 -6 -7 0 -7 -3 -11 -6 -7 -4 3 -23 -1 -43 -9 -20 -9 -42 -17 -49 -18 -8 -1
-17 -7 -20 -13 -4 -5 -19 -13 -34 -17 -26 -6 -28 -10 -28 -55 0 -42 4 -52 28
-69 l27 -21 -3 -119 -2 -119 29 -32 c26 -28 34 -31 65 -26 29 6 39 3 61 -20
27 -26 29 -43 10 -100 -5 -16 9 -40 56 -100 34 -44 76 -95 92 -112 l31 -33
252 0 c211 0 254 2 264 15 17 20 69 19 92 -2 40 -36 10 -113 -44 -113 -33 0
-68 24 -68 46 0 20 -117 28 -322 20 -172 -5 -189 -5 -205 12 -10 9 -58 68
-107 130 -49 61 -96 112 -103 112 -25 0 -63 48 -63 78 0 22 -11 39 -40 66
l-40 36 0 125 c0 69 -4 125 -9 125 -4 0 -19 10 -33 23 -22 21 -25 30 -20 75
l5 52 -159 -6 c-88 -3 -164 -7 -169 -9 -6 -1 -12 -40 -13 -89 -1 -47 -6 -96
-11 -108 -5 -13 -39 -52 -75 -87 -36 -35 -66 -67 -66 -71 0 -4 7 -13 15 -20
21 -17 19 -63 -5 -92 -18 -24 -19 -44 -20 -439 0 -228 -1 -420 0 -427 0 -8 8
-10 25 -6 61 15 113 -35 100 -97 -20 -91 -155 -72 -155 22 0 21 -5 41 -10 44
-7 4 -10 155 -9 441 l1 434 -26 31 c-14 17 -26 39 -26 48 0 10 47 65 105 121
l105 104 0 98 0 98 -47 1 c-27 0 -65 2 -85 5 l-38 5 0 -58 c0 -32 -4 -63 -8
-69 -8 -11 -70 -41 -167 -80 -46 -19 -70 -34 -80 -53 -10 -21 -15 -107 -21
-363 l-7 -336 -57 -58 c-103 -105 -132 -145 -125 -171 4 -17 -1 -30 -19 -48
-48 -48 -116 -19 -116 49 0 42 29 66 80 66 32 0 44 9 117 88 l81 89 4 328 c2
213 -1 329 -7 331 -13 3 -166 -178 -182 -216 -18 -40 -51 -61 -88 -54 -26 4
-62 -13 -235 -111 -113 -64 -242 -137 -286 -161 l-82 -44 -101 -177 c-88 -153
-101 -180 -95 -208 7 -38 -8 -71 -36 -80 -75 -24 -106 84 -33 114 22 9 49 48
120 169 50 86 95 166 101 178 6 11 97 69 204 128 106 60 239 136 296 169 94
56 102 63 102 91 0 40 9 52 43 65 19 8 34 8 47 1 10 -5 23 -10 29 -10 13 0
171 180 171 196 0 22 38 47 64 40 22 -5 58 6 214 71 6 3 12 19 12 37 0 17 4
46 9 64 5 17 6 32 1 32 -4 0 -10 8 -12 18 -3 10 -15 18 -28 19 -12 1 -37 9
-54 17 -17 8 -83 21 -146 30 -442 63 -743 180 -805 313 l-19 42 -148 0 -147 0
-143 83 -143 83 -329 3 c-296 3 -332 2 -361 -14 -21 -11 -41 -15 -58 -10 -23
5 -27 12 -27 41 0 56 64 73 90 24 10 -18 25 -19 351 -19 l340 0 147 -80 c81
-44 158 -80 172 -81 14 -1 78 -2 143 -3 l117 -1 11 32 c10 30 62 84 124 129
21 15 27 25 22 39 -7 17 -18 18 -181 12 -187 -7 -205 -5 -289 45 -40 23 -55
27 -88 22 -34 -6 -44 -3 -67 18 -22 21 -41 27 -99 31 -43 3 -84 1 -102 -6 -23
-8 -33 -8 -46 3 -24 20 -16 71 13 81 20 8 29 4 52 -21 24 -26 38 -32 94 -37
51 -5 71 -2 90 11 42 27 74 21 98 -20 15 -25 40 -45 91 -70 l70 -36 171 7 c94
3 200 7 236 8 47 1 89 12 150 36 47 18 121 42 165 53 97 24 108 33 76 59 -18
14 -32 18 -57 13 -52 -10 -81 2 -93 36 -9 26 -26 38 -107 77 -74 35 -103 44
-127 39 -68 -14 -108 63 -52 100 33 22 72 6 86 -34 11 -31 22 -39 131 -94 65
-33 80 -37 98 -28 29 16 78 -5 86 -35 6 -24 45 -46 89 -50 19 -3 25 3 30 26 7
29 40 61 94 91 l31 17 0 98 c0 82 -4 102 -20 123 -24 30 -24 39 -4 68 17 25
42 28 66 10z m1558 -68 c24 -24 24 -30 5 -56 -15 -20 -19 -62 -7 -80 4 -6 50
-39 102 -73 l95 -63 205 3 c113 2 211 0 218 -5 6 -4 12 -22 12 -39 0 -28 11
-41 76 -97 42 -36 87 -71 100 -78 19 -10 83 -13 273 -10 l247 3 33 28 c38 32
40 32 69 11 24 -17 30 -62 10 -82 -16 -16 -59 -15 -82 3 -16 12 -69 15 -295
15 l-276 0 -91 84 c-50 47 -103 88 -117 91 -15 4 -29 16 -32 26 -7 22 -33 24
-235 20 l-125 -3 -65 46 c-36 25 -85 58 -110 72 -55 33 -70 51 -70 82 0 13 -7
30 -15 38 -22 22 -18 50 7 68 30 21 44 20 68 -4z m-1885 -50 c0 -18 -6 -26
-23 -28 -13 -2 -25 3 -28 12 -10 26 4 48 28 44 17 -2 23 -10 23 -28z m2291
-68 c35 -24 15 -76 -27 -70 -18 2 -25 10 -27 32 -5 37 25 58 54 38z m359 -32
c8 -27 -12 -52 -39 -48 -21 3 -32 28 -22 54 8 22 54 18 61 -6z m759 -75 c27
-28 -10 -69 -40 -44 -17 14 -18 31 -2 47 16 16 23 15 42 -3z m-4299 -50 c0
-25 -4 -30 -24 -30 -28 0 -47 25 -38 49 5 12 16 16 34 14 24 -3 28 -8 28 -33z
m-687 -48 c3 -23 0 -27 -23 -27 -30 0 -43 24 -25 46 19 22 45 13 48 -19z
m4462 -22 c15 -19 -3 -45 -31 -45 -23 0 -32 15 -24 40 7 24 37 26 55 5z m1164
-167 c8 -14 7 -21 -6 -34 -30 -30 -75 9 -48 42 16 18 39 15 54 -8z m-6094
-213 c23 -24 27 -25 164 -25 l141 0 84 -45 c45 -25 88 -45 95 -45 24 1 105 60
118 87 17 37 55 43 67 11 12 -33 4 -47 -34 -54 -18 -3 -54 -21 -81 -40 -26
-19 -56 -34 -67 -34 -10 0 -57 21 -105 47 l-85 46 -136 1 c-127 1 -139 -1
-174 -23 -32 -19 -43 -22 -62 -13 -32 15 -42 55 -21 87 22 33 65 33 96 0z
m6231 15 c29 -16 26 -75 -5 -95 -26 -17 -51 -12 -79 17 -17 17 -44 18 -456 18
l-438 0 -111 -95 -112 -95 -60 0 c-33 0 -60 -4 -60 -8 0 -24 30 -32 123 -32
94 0 102 2 161 35 l63 35 590 0 c577 0 590 0 608 20 26 29 73 26 87 -5 27 -60
-43 -103 -87 -55 -19 21 -25 21 -604 18 l-586 -3 -55 -35 c-49 -31 -64 -36
-140 -40 -69 -4 -85 -8 -88 -22 -2 -11 36 -51 115 -117 l118 -101 374 0 374 0
99 -61 c96 -59 99 -60 134 -47 30 10 39 10 62 -3 21 -11 28 -23 30 -55 3 -48
-14 -67 -58 -66 -43 1 -70 19 -76 52 -5 23 -25 40 -103 89 l-98 61 -376 0
-376 0 -120 99 c-65 55 -122 105 -126 111 -5 7 -21 9 -46 5 -35 -6 -42 -4 -68
24 l-29 31 -258 2 c-212 3 -259 6 -259 17 0 11 46 13 263 12 258 -2 303 3 286
30 -3 5 -115 9 -250 9 -145 0 -244 4 -244 9 0 19 100 24 362 17 159 -4 276 -2
291 3 13 5 70 48 126 95 l101 86 448 0 449 0 23 25 c25 27 50 31 81 15z
m-5433 -42 c3 -22 -2 -29 -22 -34 -32 -8 -46 1 -46 30 0 30 9 38 40 34 19 -2
26 -10 28 -30z m-1137 6 c9 -11 10 -20 2 -32 -15 -24 -44 -27 -59 -7 -28 38
27 75 57 39z m-385 -139 c10 -15 14 -34 10 -52 -5 -24 3 -37 64 -101 l70 -73
483 3 483 3 28 23 c35 27 60 28 86 2 25 -25 86 -27 120 -3 95 63 210 156 205
163 -4 6 -70 10 -151 10 -80 0 -144 4 -144 9 0 7 268 22 355 20 11 0 159 -3
328 -5 235 -4 307 -8 304 -17 -3 -9 -78 -13 -296 -15 -248 -2 -293 -5 -297
-17 -4 -8 -24 -18 -46 -22 -29 -4 -74 -30 -155 -89 -95 -70 -120 -84 -152 -84
-27 0 -44 -7 -61 -25 -14 -14 -35 -25 -50 -25 -15 0 -36 11 -50 25 l-23 25
-497 0 -496 0 -68 75 c-55 60 -74 75 -97 75 -41 0 -73 34 -64 68 10 40 24 52
61 52 25 0 38 -7 50 -25z m4992 -152 c-3 -19 -48 -32 -48 -14 0 10 28 30 43
31 5 0 7 -8 5 -17z m-2618 -12 c0 -11 -6 -23 -12 -28 -7 -4 -74 -10 -148 -13
l-135 -5 -165 -119 -165 -118 -612 5 -612 5 -140 -84 c-77 -46 -145 -84 -150
-84 -5 0 -14 -14 -21 -31 -17 -40 -52 -54 -89 -34 -16 8 -31 22 -33 32 -13 51
40 96 87 75 14 -7 34 -12 43 -12 10 0 77 36 150 80 l131 80 617 0 616 0 117
82 c64 46 139 100 166 120 l50 38 126 0 c100 0 129 3 139 15 18 21 40 19 40
-4z m4805 -34 c13 -10 16 -21 11 -40 -5 -22 -12 -27 -36 -27 -40 0 -59 34 -34
61 20 22 34 24 59 6z m-4627 -99 l3 -46 -84 -50 c-135 -79 -195 -127 -199
-159 -2 -22 -9 -29 -31 -31 -16 -2 -34 1 -40 6 -7 6 -256 13 -634 17 l-622 8
-143 -93 c-345 -225 -427 -281 -461 -315 -29 -29 -39 -34 -58 -27 -31 12 -43
34 -35 65 7 29 44 45 73 32 26 -12 35 -8 105 34 69 42 376 244 448 294 l45 32
645 5 c529 4 649 8 670 19 14 8 66 42 115 76 50 34 105 70 123 79 28 14 32 22
32 55 0 42 7 53 30 49 10 -2 16 -17 18 -50z m2197 26 c0 -14 -7 -19 -29 -19
-37 0 -46 22 -14 34 31 13 43 8 43 -15z m-227 -56 c7 -7 12 -31 12 -54 0 -38
5 -47 56 -93 l56 -51 109 0 c106 0 111 1 133 26 14 17 32 27 51 27 19 0 37
-10 51 -27 22 -24 28 -26 111 -26 l88 0 63 53 c41 34 65 62 69 80 7 35 36 52
63 37 31 -17 23 -70 -11 -70 -10 0 -51 -29 -92 -65 l-74 -65 -96 0 c-87 0 -97
-2 -107 -20 -24 -46 -79 -45 -123 1 -15 17 -34 19 -140 19 l-122 0 -68 66
c-70 67 -102 127 -85 158 11 19 39 21 56 4z m-1678 -42 c0 -43 -1 -45 -55 -76
-31 -18 -70 -49 -87 -71 -27 -34 -37 -39 -73 -39 -46 0 -52 -4 -284 -177
l-125 -93 -299 0 -299 0 -30 -25 c-36 -30 -61 -32 -89 -4 -14 14 -19 30 -17
56 6 73 91 95 124 32 l15 -29 279 0 c153 0 289 4 302 9 13 5 73 46 133 91 206
155 232 178 238 210 9 42 46 58 93 41 32 -11 39 -10 79 14 36 21 45 31 45 53
0 30 16 52 37 52 9 0 13 -15 13 -44z m1305 -52 c-7 -51 2 -60 117 -113 71 -33
111 -61 213 -153 101 -89 136 -115 173 -125 33 -8 156 -12 407 -13 324 0 363
2 385 17 14 9 88 74 164 143 l140 125 287 -2 287 -2 176 -123 c423 -295 397
-279 442 -272 43 6 74 -12 74 -42 0 -59 -65 -74 -101 -24 -13 16 -41 42 -63
57 -131 89 -504 348 -518 360 -18 16 -114 20 -406 16 l-173 -3 -82 -77 c-46
-43 -114 -105 -151 -138 l-69 -60 -376 -5 c-431 -6 -429 -5 -296 -80 l80 -45
532 -3 c531 -3 531 -2 538 18 6 19 41 40 66 40 20 0 59 -50 59 -75 0 -32 -33
-65 -64 -65 -13 0 -36 10 -52 23 l-29 22 -521 1 -521 1 -97 51 c-53 29 -106
52 -117 52 -35 0 -59 19 -59 48 0 22 -23 48 -122 137 -104 95 -138 119 -247
175 l-126 65 -3 58 c-2 34 2 65 8 72 7 8 9 20 5 27 -4 7 5 0 20 -17 23 -26 26
-36 20 -71z m-313 -11 c24 -29 28 -49 12 -72 -18 -25 -37 -27 -58 -5 -21 20
-20 53 1 76 20 22 26 23 45 1z m-2797 -246 c13 -10 16 -21 11 -41 -8 -31 -26
-41 -61 -32 -19 5 -25 13 -25 34 0 48 36 67 75 39z m346 -457 c23 -13 25 -53
3 -74 -18 -19 -16 -19 -48 -6 -44 16 -30 88 17 90 5 0 17 -5 28 -10z m3971
-106 c14 -31 1 -57 -31 -62 -30 -5 -51 15 -51 48 0 34 6 40 42 40 21 0 32 -7
40 -26z m1088 -44 c23 -43 -17 -83 -59 -61 -25 14 -36 48 -21 66 19 22 67 19
80 -5z m-1993 -57 l191 -4 76 -88 c55 -64 85 -90 106 -95 39 -7 58 -45 42 -81
-23 -50 -102 -21 -102 37 0 22 -18 51 -72 114 l-72 84 -166 0 -166 0 -22 -30
c-20 -27 -22 -40 -22 -184 0 -92 4 -157 10 -161 14 -9 13 -58 -2 -73 -17 -17
-54 -15 -72 4 -21 20 -20 53 2 77 25 28 32 306 8 326 -21 18 -20 67 2 81 9 5
28 7 42 3 14 -3 111 -8 217 -10z"/>
<path d="M5431 8998 c0 -7 14 -24 30 -37 25 -20 34 -22 52 -12 60 31 163 29
214 -4 22 -15 25 -13 60 19 44 40 39 59 -6 25 -27 -20 -33 -21 -61 -9 -23 9
-61 11 -139 7 -87 -5 -112 -3 -129 9 -17 12 -22 12 -21 2z"/>
<path d="M5726 5013 c-8 -9 -59 -14 -168 -16 -49 -1 -88 -5 -88 -10 0 -17 56
-28 105 -21 27 4 52 7 56 7 24 -6 116 -9 131 -5 22 5 23 16 2 36 -17 17 -27
20 -38 9z"/>
<path d="M7603 8158 c-9 -15 -51 -116 -123 -293 -53 -133 -330 -801 -493
-1190 -57 -137 -139 -335 -182 -440 -72 -177 -224 -538 -265 -630 -66 -150
-81 -188 -73 -195 4 -4 130 -3 278 2 348 12 1554 12 1890 0 143 -5 263 -7 267
-5 4 2 -12 43 -36 91 -24 48 -81 166 -126 262 -45 96 -137 288 -203 425 -66
138 -126 266 -134 285 -9 19 -46 100 -83 180 -272 581 -507 1091 -594 1285
-120 267 -108 246 -123 223z"/>
<path d="M3599 8098 c-46 -109 -219 -486 -378 -822 -28 -59 -51 -110 -51 -112
0 -2 -42 -92 -94 -201 -121 -255 -473 -1005 -645 -1372 -45 -96 -78 -178 -74
-181 5 -4 125 -3 268 2 351 12 1535 12 1875 0 151 -5 278 -8 282 -6 6 4 -27
87 -162 404 -92 217 -172 412 -267 645 -94 234 -216 529 -243 590 -48 108 -88
204 -200 480 -67 165 -130 318 -140 340 -10 22 -41 96 -69 165 -28 69 -56 126
-63 128 -8 1 -24 -24 -39 -60z"/>
<path d="M5040 3821 c0 -21 8 -35 28 -49 36 -26 125 -52 176 -52 40 1 40 1
-29 25 -97 35 -136 56 -146 83 -12 31 -29 27 -29 -7z"/>
<path d="M6146 3825 c-9 -13 -43 -37 -76 -52 -88 -41 -77 -59 17 -27 58 19 93
50 93 81 0 30 -14 29 -34 -2z"/>
<path d="M4856 3704 c-28 -72 59 -137 242 -178 54 -12 63 -13 58 -1 -3 8 1 21
9 28 7 8 10 18 7 24 -11 16 -65 41 -118 54 -58 14 -117 40 -160 69 -28 18 -32
19 -38 4z"/>
<path d="M6305 3692 c-22 -15 -79 -40 -125 -56 -87 -31 -131 -58 -111 -70 12
-8 -13 -39 -39 -50 -8 -3 1 -3 20 0 196 31 325 99 318 168 -4 39 -15 41 -63 8z"/>
<path d="M6891 3415 c-6 -19 -25 -45 -40 -58 -51 -42 -184 -104 -333 -153 -81
-27 -148 -51 -148 -54 0 -3 27 -6 61 -7 102 -4 363 90 431 154 33 31 58 82 58
116 0 39 -15 40 -29 2z"/>
<path d="M4308 3424 c-3 -41 5 -80 20 -107 27 -46 119 -99 240 -139 143 -47
227 -63 273 -50 19 6 26 11 16 11 -9 1 -36 10 -60 21 -23 11 -79 31 -125 44
-179 54 -301 124 -339 196 -16 29 -23 37 -25 24z"/>
</g>
</svg>
